<?xml version="1.0" standalone="no"?>
<!DOCTYPE svg PUBLIC "-//W3C//DTD SVG 20010904//EN"
 "http://www.w3.org/TR/2001/REC-SVG-20010904/DTD/svg10.dtd">
<svg version="1.0" xmlns="http://www.w3.org/2000/svg"
 width="350.000000pt" height="350.000000pt" viewBox="0 0 350.000000 350.000000"
 preserveAspectRatio="xMidYMid meet">
<metadata>
Created by potrace 1.11, written by Peter Selinger 2001-2013
</metadata>
<g transform="translate(0.000000,350.000000) scale(0.100000,-0.100000)"
fill="#000000" stroke="none">
<path d="M1780 3058 c0 -4 5 -8 10 -8 10 0 5 -144 -6 -161 -2 -3 1 -22 7 -42
8 -28 17 -38 44 -47 51 -17 90 -5 108 33 13 28 26 110 27 175 0 13 6 22 15 22
32 0 13 15 -23 17 -30 2 -34 1 -19 -8 35 -20 2 -227 -36 -230 -6 0 -20 -2 -29
-4 -9 -2 -26 4 -38 12 -21 15 -22 20 -15 97 4 44 8 92 9 105 1 14 10 28 21 32
18 7 17 8 -5 9 -14 1 -35 3 -47 4 -13 2 -23 -1 -23 -6z"/>
<path d="M1528 2985 c-8 -36 -12 -62 -8 -60 4 3 10 19 14 37 l7 33 24 -44 c30
-52 30 -51 5 -51 -11 0 -20 -4 -20 -9 0 -4 11 -6 24 -4 18 4 28 -3 45 -30 25
-41 26 -47 6 -47 -8 0 -15 -4 -15 -9 0 -5 18 -5 42 1 42 9 62 18 41 18 -11 0
-94 134 -119 191 -20 46 -30 40 -46 -26z"/>
<path d="M2137 2999 c10 -12 5 -34 -23 -110 -38 -100 -51 -122 -65 -113 -5 3
-9 3 -9 0 0 -7 68 -36 84 -36 6 0 5 4 -3 9 -12 8 -12 16 -1 55 15 56 24 62 54
43 20 -13 22 -21 18 -76 -4 -57 -2 -62 19 -70 13 -5 29 -6 34 -3 6 4 2 8 -9
10 -16 3 -18 10 -12 49 3 24 1 53 -4 63 -8 15 -5 20 20 29 56 19 60 79 8 115
-34 24 -40 19 -13 -8 22 -22 23 -28 14 -55 -15 -42 -42 -56 -79 -41 l-28 12
16 41 c9 23 22 49 29 58 12 14 11 17 -4 22 -10 2 -27 8 -38 13 -17 6 -18 5 -8
-7z"/>
<path d="M1240 2963 c-47 -19 -86 -36 -87 -37 -5 -4 21 -66 27 -66 4 0 5 13 2
28 -3 22 2 32 22 46 25 16 26 16 36 -6 77 -186 81 -202 58 -211 -9 -4 -8 -5 2
-5 8 0 33 8 55 19 22 11 32 17 23 15 -21 -6 -24 -2 -70 108 -41 97 -45 116
-24 116 8 0 20 2 28 5 7 3 21 -7 30 -22 10 -16 18 -23 18 -16 0 19 -19 63 -27
62 -5 0 -46 -16 -93 -36z"/>
<path d="M1507 2895 c-3 -11 -9 -37 -13 -58 -3 -20 -10 -40 -15 -43 -20 -12
-7 -20 28 -16 35 4 36 5 14 13 -18 7 -22 14 -17 32 3 12 6 30 6 40 0 9 7 17
15 17 8 0 15 5 15 11 0 5 -4 8 -9 5 -5 -4 -11 0 -14 6 -2 8 -6 5 -10 -7z"/>
<path d="M1020 2843 c0 -7 -10 -13 -22 -14 -20 -1 -19 -2 5 -9 16 -5 35 -14
43 -21 20 -17 17 2 -6 31 -11 14 -20 19 -20 13z"/>
<path d="M946 2798 c-38 -54 4 -111 79 -108 81 3 91 1 103 -26 13 -27 2 -63
-21 -65 -7 -1 -19 -2 -27 -3 -8 -1 -27 7 -42 17 -35 23 -36 14 -3 -25 14 -16
25 -25 25 -19 0 6 9 11 21 11 28 0 79 53 79 82 0 13 -9 34 -20 46 -17 18 -32
22 -86 22 -36 0 -74 5 -85 10 -21 12 -25 40 -7 58 6 6 9 14 6 17 -3 4 -13 -4
-22 -17z"/>
<path d="M2463 2784 c-60 -40 -71 -54 -18 -23 31 18 35 19 35 5 0 -9 -6 -31
-14 -49 -7 -18 -16 -54 -20 -81 -6 -41 -10 -47 -27 -43 -24 7 -16 -6 20 -32
l29 -21 0 23 c0 12 14 75 30 140 16 64 26 117 23 117 -3 0 -30 -16 -58 -36z"/>
<path d="M2350 2710 c-25 -17 -51 -30 -58 -30 -17 0 -6 -17 20 -31 18 -10 20
-9 15 5 -6 16 11 39 45 57 16 9 25 6 46 -13 l27 -23 -25 30 c-14 17 -25 31
-25 32 -1 1 -21 -11 -45 -27z"/>
<path d="M760 2633 c-18 -21 -47 -53 -64 -72 -27 -29 -28 -32 -10 -27 17 5 33
-3 66 -31 107 -93 119 -107 114 -128 -3 -14 7 -7 32 21 67 74 92 104 92 108 0
3 -15 15 -32 28 l-33 23 18 -28 c21 -32 16 -55 -16 -85 l-23 -22 -42 32 c-47
36 -49 40 -26 59 12 10 20 10 35 1 31 -20 22 -1 -17 35 -38 34 -55 44 -34 18
12 -15 6 -65 -8 -65 -10 0 -82 69 -82 79 0 4 13 20 30 36 27 26 32 27 57 16
l28 -13 -24 26 c-14 14 -25 26 -26 26 -1 0 -17 -17 -35 -37z"/>
<path d="M2700 2652 c0 -12 -3 -22 -7 -22 -5 0 -28 -19 -52 -41 -70 -64 -109
-91 -121 -84 -15 9 -12 1 9 -23 20 -24 41 -31 22 -8 -9 10 5 27 66 80 42 36
78 64 81 62 4 -4 -13 -62 -60 -214 -5 -18 -8 -36 -5 -38 3 -3 45 29 93 71 62
52 95 74 108 71 16 -4 15 -1 -5 22 -13 15 -26 29 -28 32 -2 3 -1 -5 3 -16 5
-18 -5 -31 -54 -74 -33 -29 -62 -51 -65 -49 -2 2 10 51 27 108 l30 103 -21 21
-21 21 0 -22z"/>
<path d="M1684 2506 c-17 -8 -40 -26 -52 -40 -11 -15 -33 -29 -49 -32 -67 -12
-98 -54 -90 -123 6 -52 41 -91 83 -91 13 0 24 -3 24 -7 2 -43 13 -159 16 -162
6 -7 253 -8 263 -2 4 4 11 42 14 86 4 44 6 81 7 81 0 1 15 5 34 8 45 9 67 36
73 90 4 33 1 53 -11 72 -18 27 -72 55 -91 47 -7 -2 -20 8 -29 22 -39 59 -122
81 -192 51z"/>
<path d="M588 2374 c-14 -7 -28 -21 -32 -31 -5 -16 -5 -16 6 -2 10 11 22 13
45 8 44 -9 62 -25 59 -54 -3 -21 0 -23 24 -19 15 3 44 1 64 -4 21 -6 43 -9 51
-6 17 7 25 38 13 55 -8 11 -9 10 -4 -3 4 -15 -3 -17 -65 -15 -63 2 -69 4 -69
23 0 41 -52 69 -92 48z"/>
<path d="M2878 2374 c-35 -18 -36 -27 -3 -14 29 11 61 -3 68 -30 6 -24 -189
-117 -214 -102 -17 11 -17 10 -3 -21 8 -18 18 -41 21 -52 6 -18 7 -18 13 5 4
20 26 35 100 72 52 26 98 47 102 48 4 0 11 -11 14 -26 5 -18 0 -32 -17 -50
l-23 -25 33 14 c18 8 33 17 33 21 2 16 -77 176 -87 175 -5 0 -22 -7 -37 -15z"/>
<path d="M522 2280 c-12 -22 -18 -40 -13 -40 5 0 11 4 13 9 2 6 39 -8 83 -30
110 -56 128 -68 121 -85 -11 -29 4 -13 24 26 20 40 27 67 10 40 -7 -12 -25 -6
-107 35 -54 27 -101 48 -104 47 -4 -1 -5 8 -2 18 8 30 0 24 -25 -20z"/>
<path d="M2399 2202 c-358 -189 -416 -227 -466 -306 -46 -72 -103 -126 -133
-126 -20 0 -29 -6 -33 -21 -5 -19 -9 -18 -65 20 -33 23 -65 41 -71 41 -6 0
-11 5 -11 11 0 6 -7 9 -15 5 -8 -3 -15 -1 -15 5 0 5 -17 17 -37 26 -21 8 -40
18 -43 22 -3 4 -124 76 -270 159 -236 136 -266 150 -280 137 -13 -14 -12 -20
8 -58 46 -85 140 -171 297 -272 82 -53 153 -101 157 -108 4 -7 11 -12 15 -13
26 -3 63 -18 63 -26 0 -5 4 -7 9 -3 5 3 12 1 16 -5 4 -6 11 -8 16 -5 5 4 9 1
9 -5 0 -6 4 -9 9 -6 14 9 22 -24 10 -46 -6 -11 -13 -17 -16 -15 -5 6 -131 -49
-377 -164 -183 -85 -249 -135 -249 -187 0 -46 27 -72 77 -72 58 1 86 17 319
180 349 244 394 272 411 255 8 -8 23 -15 33 -15 24 0 176 -98 365 -235 240
-173 278 -195 346 -195 30 0 72 43 72 74 0 14 -14 41 -32 62 -31 35 -64 52
-448 237 -58 27 -108 55 -112 60 -3 6 -14 12 -23 13 -29 4 -66 35 -63 52 1 9
-1 22 -5 29 -11 17 28 35 64 29 19 -3 32 0 35 9 3 8 20 12 47 11 23 -1 63 4
90 11 49 14 146 67 182 100 12 10 27 19 35 21 8 2 17 8 18 13 2 5 8 9 13 9 5
0 54 26 109 57 90 52 119 77 106 91 -6 5 -109 -46 -204 -100 -29 -16 -56 -27
-59 -24 -8 8 12 23 119 87 48 28 85 56 82 61 -3 5 -2 8 3 7 21 -4 33 2 33 16
0 8 -3 15 -6 15 -9 0 -91 -42 -214 -110 -62 -34 -114 -59 -117 -57 -5 5 139
102 188 127 41 21 119 75 119 83 0 21 -52 -1 -249 -109 -35 -19 -66 -32 -69
-29 -7 7 -15 1 118 81 63 38 117 72 118 77 2 4 8 7 14 7 14 0 38 26 31 34 -10
10 -18 7 -74 -22z"/>
<path d="M522 1860 c0 -14 3 -34 8 -45 l9 -20 -1 20 c0 11 -4 31 -8 45 l-8 25
0 -25z"/>
<path d="M567 1845 c7 -46 9 -51 16 -33 2 8 -1 27 -9 43 l-13 30 6 -40z"/>
<path d="M2923 1842 c0 -23 4 -39 8 -35 4 5 4 24 -1 43 l-9 35 2 -43z"/>
<path d="M2962 1865 c0 -11 4 -31 8 -45 l8 -25 0 25 c0 14 -3 34 -8 45 l-9 20
1 -20z"/>
<path d="M444 1781 c-12 -13 -1 -79 19 -108 21 -31 25 -33 85 -33 44 0 68 5
79 16 23 23 42 85 33 109 -7 18 -16 20 -109 20 -56 0 -104 -2 -107 -4z"/>
<path d="M2848 1779 c-20 -11 -10 -75 18 -112 17 -23 26 -26 81 -27 57 0 63 2
88 31 20 25 25 40 23 73 l-3 40 -96 2 c-53 1 -103 -2 -111 -7z"/>
<path d="M610 1360 c0 -5 5 -10 10 -10 6 0 10 5 10 10 0 6 -4 10 -10 10 -5 0
-10 -4 -10 -10z"/>
<path d="M1714 1356 c-3 -8 -3 -20 1 -26 4 -6 -5 -10 -23 -10 -43 0 -165 -65
-203 -107 -40 -46 -75 -124 -84 -185 -5 -35 -12 -47 -27 -51 -11 -3 -18 -12
-16 -19 4 -10 79 -13 374 -14 203 -1 377 1 387 3 23 6 22 33 -2 33 -15 0 -21
12 -31 62 -15 78 -27 101 -86 167 -51 56 -119 97 -181 107 -32 5 -39 10 -39
27 1 18 -6 23 -32 25 -22 2 -34 -2 -38 -12z"/>
<path d="M2870 1360 c0 -5 7 -10 16 -10 8 0 12 5 9 10 -3 6 -10 10 -16 10 -5
0 -9 -4 -9 -10z"/>
<path d="M553 1343 c-13 -2 -23 -8 -23 -12 0 -5 11 -6 25 -3 14 2 25 8 25 13
0 5 -1 8 -2 8 -2 -1 -13 -4 -25 -6z"/>
<path d="M2900 1335 c0 -11 59 -34 65 -25 3 6 -3 10 -14 10 -11 0 -23 5 -26
10 -6 10 -25 14 -25 5z"/>
<path d="M2854 1319 c-3 -5 6 -9 20 -9 31 0 34 6 6 13 -11 3 -23 1 -26 -4z"/>
<path d="M581 1313 c-1 -17 16 -25 25 -12 4 7 3 9 -4 5 -5 -3 -13 0 -15 6 -4
9 -6 10 -6 1z"/>
<path d="M646 1272 c-4 -6 -24 -17 -46 -23 -39 -12 -39 -12 -24 -40 8 -16 19
-29 25 -29 6 0 3 7 -6 16 -19 19 -15 38 8 42 10 2 17 -3 17 -12 0 -9 5 -16 10
-16 7 0 7 6 1 19 -9 15 -7 20 9 24 11 3 20 0 20 -6 0 -6 3 -8 6 -4 3 3 2 13
-4 23 -6 11 -12 13 -16 6z"/>
<path d="M2924 1260 c3 -8 2 -21 -3 -29 -7 -11 -14 -11 -40 2 -17 8 -31 12
-31 8 0 -4 16 -14 36 -23 35 -16 35 -16 45 10 7 17 6 29 -1 36 -8 8 -10 7 -6
-4z"/>
<path d="M665 1220 c-3 -5 -1 -10 4 -10 6 0 11 5 11 10 0 6 -2 10 -4 10 -3 0
-8 -4 -11 -10z"/>
<path d="M2806 1191 c-2 -3 16 -16 41 -27 24 -12 45 -19 47 -15 2 3 -16 16
-41 27 -24 12 -45 19 -47 15z"/>
<path d="M682 1174 c-14 -16 -5 -18 17 -5 7 5 9 11 5 14 -5 3 -15 -1 -22 -9z"/>
<path d="M650 1150 c0 -5 5 -10 11 -10 5 0 7 5 4 10 -3 6 -8 10 -11 10 -2 0
-4 -4 -4 -10z"/>
<path d="M707 1140 c-3 -11 -1 -20 4 -20 5 0 9 9 9 20 0 11 -2 20 -4 20 -2 0
-6 -9 -9 -20z"/>
<path d="M620 1140 c-8 -5 -12 -12 -9 -15 4 -3 12 1 19 10 14 17 11 19 -10 5z"/>
<path d="M2776 1142 c-2 -4 -1 -14 5 -22 14 -24 11 -30 -16 -30 -14 0 -25 -5
-25 -12 0 -6 3 -8 6 -5 4 4 20 -3 35 -14 16 -11 29 -16 29 -10 0 5 -10 13 -22
17 l-23 7 22 8 c16 6 21 13 16 26 -6 14 -2 13 24 -5 18 -12 34 -18 37 -13 3 5
-4 11 -17 15 -12 3 -32 14 -44 26 -12 11 -24 16 -27 12z"/>
<path d="M646 1115 c-17 -13 -18 -17 -6 -28 8 -6 12 -8 8 -3 -10 12 20 39 33
30 8 -4 9 -3 5 4 -9 15 -17 15 -40 -3z"/>
<path d="M715 1075 c-16 -14 -36 -25 -43 -25 -7 0 -10 -5 -7 -11 5 -7 13 -4
26 7 17 15 19 15 25 0 3 -9 11 -16 16 -16 6 0 5 7 -2 15 -10 13 -11 18 -1 28
9 9 16 7 31 -13 11 -14 20 -20 20 -14 0 7 -8 21 -17 33 l-18 20 -30 -24z"/>
<path d="M2825 1039 c-4 -6 -5 -12 -2 -15 2 -3 7 2 10 11 7 17 1 20 -8 4z"/>
<path d="M790 1013 c0 -5 -16 -21 -35 -35 -33 -23 -34 -25 -19 -46 8 -12 20
-22 25 -22 6 0 3 7 -5 16 -9 8 -16 19 -16 24 0 12 29 20 35 10 4 -6 12 -10 18
-10 7 0 4 7 -6 14 -15 12 -15 15 -2 26 12 10 18 8 35 -11 10 -13 19 -19 20
-13 0 6 -11 21 -25 34 -14 13 -25 19 -25 13z"/>
<path d="M2697 1014 c-3 -4 0 -13 8 -20 7 -8 23 -26 34 -40 12 -15 24 -24 28
-21 3 4 -6 17 -20 30 -15 12 -27 26 -27 30 0 10 53 -4 61 -16 4 -6 9 -5 13 1
3 6 -15 17 -41 26 -54 19 -48 18 -56 10z"/>
<path d="M2647 954 c-17 -23 -17 -24 20 -58 21 -19 40 -32 43 -29 3 2 -3 11
-13 18 -15 11 -17 17 -7 37 10 22 10 22 -4 4 -13 -16 -18 -17 -32 -5 -15 12
-14 15 5 30 12 10 18 20 14 22 -5 3 -16 -6 -26 -19z"/>
<path d="M821 911 c-30 -24 -32 -30 -22 -49 12 -23 35 -29 45 -13 4 5 -2 7
-13 4 -33 -9 -33 25 2 57 40 38 33 39 -12 1z"/>
<path d="M870 922 c0 -12 19 -26 26 -19 2 2 -2 10 -11 17 -9 8 -15 8 -15 2z"/>
<path d="M913 863 c24 -6 21 -18 -12 -46 -19 -15 -26 -29 -21 -37 6 -9 9 -7
14 7 4 11 16 29 27 39 17 16 22 16 29 4 6 -9 10 -10 10 -3 0 18 -29 43 -48 42
-15 -1 -15 -2 1 -6z"/>
<path d="M2518 825 c-3 -3 11 -22 30 -41 38 -38 64 -37 69 2 2 15 1 14 -7 -3
-5 -13 -13 -23 -18 -23 -13 0 -62 57 -55 64 4 3 2 6 -4 6 -5 0 -12 -2 -15 -5z"/>
<path d="M1030 766 c0 -2 7 -6 15 -10 8 -3 15 -1 15 4 0 6 -7 10 -15 10 -8 0
-15 -2 -15 -4z"/>
<path d="M2447 764 c-3 -3 7 -19 21 -36 15 -17 26 -34 25 -39 -4 -13 5 -11 32
7 26 17 33 34 14 34 -5 0 -8 -4 -5 -9 5 -7 -15 -21 -29 -21 -3 0 -15 16 -28
35 -13 19 -26 32 -30 29z"/>
<path d="M1010 725 c-7 -14 -17 -25 -22 -25 -5 0 -7 -4 -3 -10 3 -5 12 -7 20
-3 9 3 15 -1 15 -11 0 -29 16 -17 18 14 2 24 -1 28 -15 23 -16 -6 -16 -5 -4
10 8 10 12 20 9 22 -3 3 -11 -6 -18 -20z"/>
<path d="M1115 710 c6 -9 -21 -59 -39 -71 -5 -4 3 -15 18 -24 21 -14 30 -15
39 -6 9 10 8 11 -4 6 -20 -8 -41 16 -29 35 7 11 11 11 24 1 9 -8 16 -9 16 -3
0 5 -7 13 -16 16 -13 5 -14 9 -4 21 14 17 40 9 41 -14 0 -12 2 -13 6 -2 3 8
-5 22 -18 32 -26 20 -44 25 -34 9z"/>
<path d="M2376 698 c3 -13 10 -24 15 -26 4 -2 5 -10 2 -19 -5 -13 -3 -14 18
-3 17 10 24 10 27 1 2 -6 8 -8 13 -5 10 6 -58 74 -74 74 -4 0 -5 -10 -1 -22z"/>
<path d="M1188 648 c-7 -19 2 -38 18 -38 8 0 14 -9 14 -20 0 -24 -36 -28 -43
-5 -4 11 -4 10 -3 -2 1 -12 10 -18 26 -18 34 0 39 33 9 56 -23 17 -23 18 -5
25 13 5 23 1 32 -11 12 -16 14 -16 14 -3 0 26 -54 39 -62 16z"/>
<path d="M2231 636 c-15 -8 -20 -16 -12 -20 6 -4 11 -3 11 2 0 5 10 14 23 20
12 6 18 11 12 11 -5 0 -21 -6 -34 -13z"/>
<path d="M1275 621 c-4 -7 0 -8 11 -4 14 5 15 1 9 -28 -4 -19 -11 -38 -16 -43
-11 -13 -12 -26 0 -26 5 0 14 20 20 45 6 25 16 45 21 45 6 0 10 -5 10 -11 0
-5 5 -7 11 -3 8 5 8 9 -2 14 -29 16 -58 20 -64 11z"/>
<path d="M2270 616 c0 -15 -12 -21 -34 -17 -5 1 -5 -6 -1 -16 4 -10 8 -25 9
-34 0 -9 6 -15 13 -12 9 4 9 9 0 23 -6 11 -8 22 -4 26 9 9 38 -16 31 -27 -3
-5 2 -6 11 -3 14 6 13 9 -5 21 -16 11 -18 18 -10 28 8 9 8 15 0 20 -5 3 -10
-1 -10 -9z"/>
<path d="M2136 597 c-16 -11 -17 -17 -7 -33 11 -18 12 -18 6 2 -9 33 24 41 47
12 l19 -23 -12 28 c-14 30 -26 33 -53 14z"/>
<path d="M1358 545 c-15 -25 -23 -45 -18 -45 6 0 10 4 10 9 0 5 9 11 21 14 17
5 20 2 16 -13 -3 -11 1 -21 10 -24 8 -3 12 -2 9 3 -3 5 -7 29 -7 55 -1 25 -5
46 -8 46 -3 0 -18 -20 -33 -45z"/>
<path d="M2076 581 c-3 -5 1 -11 9 -14 9 -4 12 -1 8 9 -6 16 -10 17 -17 5z"/>
<path d="M2037 573 c-10 -9 -9 -23 2 -23 5 0 11 7 15 15 5 15 -5 20 -17 8z"/>
<path d="M1450 560 c0 -5 5 -10 10 -10 6 0 10 5 10 10 0 6 -4 10 -10 10 -5 0
-10 -4 -10 -10z"/>
<path d="M1504 552 c3 -5 1 -26 -5 -46 -7 -27 -15 -36 -27 -34 -13 3 -16 13
-15 38 l2 35 -11 -28 c-8 -23 -7 -32 5 -44 23 -23 42 -10 59 41 13 39 13 46 1
46 -8 0 -12 -4 -9 -8z"/>
<path d="M1560 533 c0 -14 2 -15 9 -4 7 10 13 11 32 1 23 -11 23 -10 5 4 -26
21 -46 20 -46 -1z"/>
<path d="M1901 528 c1 -19 2 -19 6 -5 3 11 11 16 19 13 8 -3 14 -1 14 4 0 6
-9 10 -20 10 -14 0 -20 -6 -19 -22z"/>
<path d="M2191 539 c-1 -21 -25 -31 -40 -16 -8 8 -11 8 -11 0 0 -17 27 -23 45
-9 10 7 15 19 12 27 -4 11 -6 10 -6 -2z"/>
<path d="M1675 510 c1 -16 -1 -30 -5 -30 -4 0 -10 -9 -13 -20 -3 -11 -1 -20 4
-20 5 0 9 6 9 14 0 8 8 13 18 12 9 -2 17 -8 17 -14 0 -6 4 -14 8 -19 11 -10
-2 65 -15 90 -14 26 -25 20 -23 -13z"/>
<path d="M1771 505 c1 -22 3 -32 6 -22 6 23 20 22 28 -3 4 -11 11 -18 16 -15
5 3 6 -1 3 -9 -3 -9 -1 -16 5 -16 6 0 11 9 11 20 0 11 -7 20 -15 20 -8 0 -15
3 -15 8 0 4 -9 18 -20 32 l-20 25 1 -40z"/>
<path d="M1825 520 c2 -29 10 -33 13 -5 1 14 -2 25 -6 25 -5 0 -8 -9 -7 -20z"/>
<path d="M1870 529 c0 -5 5 -7 10 -4 6 3 10 8 10 11 0 2 -4 4 -10 4 -5 0 -10
-5 -10 -11z"/>
<path d="M2044 527 c3 -10 6 -27 6 -38 0 -10 5 -19 10 -19 12 0 2 50 -13 65
-7 7 -8 4 -3 -8z"/>
<path d="M2075 530 c-3 -6 1 -7 9 -4 18 7 21 14 7 14 -6 0 -13 -4 -16 -10z"/>
<path d="M1557 488 c-4 -16 -3 -18 6 -9 18 18 27 13 27 -14 0 -14 5 -25 11
-25 6 0 8 9 4 20 -4 12 -1 29 6 38 11 14 11 15 -1 5 -9 -8 -19 -9 -30 -3 -14
7 -19 5 -23 -12z"/>
<path d="M1905 480 c3 -5 8 -10 11 -10 2 0 4 5 4 10 0 6 -5 10 -11 10 -5 0 -7
-4 -4 -10z"/>
<path d="M1548 453 c7 -3 16 -2 19 1 4 3 -2 6 -13 5 -11 0 -14 -3 -6 -6z"/>
<path d="M1905 450 c-3 -5 1 -10 9 -10 9 0 16 5 16 10 0 6 -4 10 -9 10 -6 0
-13 -4 -16 -10z"/>
<path d="M1770 440 c0 -5 5 -10 10 -10 6 0 10 5 10 10 0 6 -4 10 -10 10 -5 0
-10 -4 -10 -10z"/>
</g>
</svg>
